<?xml version="1.0" encoding="UTF-8" standalone="no"?>
<svg
   xmlns:dc="http://purl.org/dc/elements/1.1/"
   xmlns:cc="http://creativecommons.org/ns#"
   xmlns:rdf="http://www.w3.org/1999/02/22-rdf-syntax-ns#"
   xmlns:svg="http://www.w3.org/2000/svg"
   xmlns="http://www.w3.org/2000/svg"
   xmlns:sodipodi="http://sodipodi.sourceforge.net/DTD/sodipodi-0.dtd"
   xmlns:inkscape="http://www.inkscape.org/namespaces/inkscape"
   version="1.1"
   x="0"
   y="0"
   width="546"
   height="132"
   viewBox="0 0 546 132"
   id="svg2"
   inkscape:version="0.91 r13725"
   sodipodi:docname="logo-sapo.svg">
  <metadata
     id="metadata19">
    <rdf:RDF>
      <cc:Work
         rdf:about="">
        <dc:format>image/svg+xml</dc:format>
        <dc:type
           rdf:resource="http://purl.org/dc/dcmitype/StillImage" />
        <dc:title></dc:title>
      </cc:Work>
    </rdf:RDF>
  </metadata>
  <defs
     id="defs17">
    <clipPath
       clipPathUnits="userSpaceOnUse"
       id="clipPath3456">
      <rect
         style="fill:#8c929d;fill-opacity:1"
         id="rect3458"
         width="86.535301"
         height="53.569473"
         x="-0.18730585"
         y="14.026617" />
    </clipPath>
    <clipPath
       clipPathUnits="userSpaceOnUse"
       id="clipPath3460">
      <rect
         style="fill:#8c929d;fill-opacity:1"
         id="rect3462"
         width="86.535301"
         height="53.569473"
         x="-0.18730585"
         y="14.026617" />
    </clipPath>
    <clipPath
       clipPathUnits="userSpaceOnUse"
       id="clipPath3464">
      <rect
         style="fill:#8c929d;fill-opacity:1"
         id="rect3466"
         width="86.535301"
         height="53.569473"
         x="-0.18730585"
         y="14.026617" />
    </clipPath>
    <clipPath
       clipPathUnits="userSpaceOnUse"
       id="clipPath3468">
      <rect
         style="fill:#8c929d;fill-opacity:1"
         id="rect3470"
         width="86.535301"
         height="53.569473"
         x="-0.18730585"
         y="14.026617" />
    </clipPath>
    <clipPath
       clipPathUnits="userSpaceOnUse"
       id="clipPath3472">
      <rect
         style="fill:#8c929d;fill-opacity:1"
         id="rect3474"
         width="86.535301"
         height="53.569473"
         x="-0.18730585"
         y="14.026617" />
    </clipPath>
  </defs>
  <sodipodi:namedview
     pagecolor="#ffffff"
     bordercolor="#666666"
     borderopacity="1"
     objecttolerance="10"
     gridtolerance="10"
     guidetolerance="10"
     inkscape:pageopacity="0"
     inkscape:pageshadow="2"
     inkscape:window-width="1855"
     inkscape:window-height="1176"
     id="namedview15"
     showgrid="false"
     inkscape:zoom="3.0934066"
     inkscape:cx="273"
     inkscape:cy="97"
     inkscape:window-x="65"
     inkscape:window-y="24"
     inkscape:window-maximized="1"
     inkscape:current-layer="svg2" />
  <g
     id="Layer_1"
     transform="matrix(2.4378715,0,0,2.4378715,1.8673604,5.300282)">
    <g
       id="g3516"
       transform="translate(-0.77763349,-15.922338)">
      <g
         id="Layer_1-0">
        <path
           id="path5-0"
           d="M 66.2,14 17.4,48.6 7.2,36.4 0,47 l 6.7,20.4 56.7,0 23,-33.9 z"
           inkscape:connector-curvature="0"
           style="fill:#7ab800" />
        <path
           id="path7-6"
           d="M 86.4,33.5 33,67.4 l 30.4,0 z"
           inkscape:connector-curvature="0"
           style="fill:#5b8f22" />
        <path
           id="path9-9"
           d="M 33,67.4 6.7,67.4 0,47 Z m 0,0 L 17.4,48.6 66.2,14 Z"
           inkscape:connector-curvature="0"
           style="fill:#69a618" />
        <path
           id="path11-5"
           d="m 74.6,27.8 c 0,3.1 -2.6,5.7 -5.8,5.7 -3.1,0 -5.7,-2.6 -5.7,-5.7 0,-3.2 2.6,-5.8 5.7,-5.8 3.2,0 5.8,2.6 5.8,5.8 z"
           inkscape:connector-curvature="0"
           style="fill:#ffffff" />
        <path
           id="path13-7"
           d="m 105,33 c 5.4,0 9.8,1.6 13.2,4.7 l -4,5.4 c -2.8,-2.6 -6.4,-3.7 -9.9,-3.7 -3,0 -4.8,1.3 -4.8,3.3 0,5.4 19.5,1.8 19.5,14.4 C 119,63.3 114.5,68 105.4,68 98.9,68 94.2,65.8 91,62.6 L 94.9,57 c 2.4,2.5 6.1,4.6 10.8,4.6 4,0 5.9,-1.8 5.9,-3.8 0,-5.9 -19.5,-1.7 -19.5,-14.5 C 92.1,37.6 97,33 105,33 Z m 101,6.3 c 6.2,0 10.3,4.8 10.3,11.2 0,6.3 -4.1,11.1 -10.3,11.1 -6.3,0 -10.3,-4.8 -10.3,-11.1 0,-6.4 4,-11.2 10.3,-11.2 z m 0,-6.4 c -10.3,0 -17.7,7.3 -17.7,17.6 0,10.2 7.4,17.5 17.7,17.5 10.2,0 17.7,-7.3 17.7,-17.5 0,0 0,0 0,0 0,-10.3 -7.5,-17.6 -17.7,-17.6 z m -68.7,7.8 5.2,14.6 -10.5,0 5.3,-14.6 z m 4.5,-7.2 -9.1,0 -13,33.9 8.1,0 2.2,-5.8 14.5,0 2.2,5.8 8.1,0 -13,-33.9 z m 31.4,6.3 c 2.8,0 5,1.8 5,4.6 0,2.8 -2.2,4.5 -5,4.5 l -7.6,0 0,-9.1 7.6,0 z m 1,-6.3 -15.8,0 0,33.9 7.2,0 0,-12.1 8.6,0 c 7.3,0 11.4,-5 11.4,-10.9 0,-5.9 -4,-10.9 -11.4,-10.9 z M 68.8,24.9 c -1.5,0 -2.8,1.3 -2.8,2.9 0,1.5 1.3,2.8 2.8,2.8 1.6,0 2.9,-1.3 2.9,-2.8 0,-1.6 -1.3,-2.9 -2.9,-2.9 z"
           inkscape:connector-curvature="0"
           style="fill:#000000" />
      </g>
      <path
         inkscape:connector-curvature="0"
         id="path3389"
         d="m 100.7822,67.190331 c -3.525581,-0.728296 -7.110879,-2.408677 -8.33017,-3.904237 -0.598719,-0.734379 -0.359476,-1.643947 0.919936,-3.497461 1.139798,-1.651252 1.91582,-2.202831 2.276995,-1.618437 0.954615,1.5446 6.656859,3.712543 9.810159,3.729738 5.2761,0.02877 8.18291,-3.499908 5.07017,-6.154873 -0.72592,-0.619169 -3.62036,-1.730237 -6.43207,-2.469039 C 95.292882,50.96261 91.573124,47.228173 92.603319,41.736766 94.009208,34.24273 105.21686,30.981338 114.0602,35.492877 c 3.39718,1.73311 3.68275,2.62416 1.6294,5.084092 l -1.38884,1.663839 -2.89369,-1.475286 c -5.19591,-2.649025 -12.379461,-1.557997 -12.379461,1.880176 0,1.634409 1.827271,2.653664 7.650141,4.267265 6.85482,1.899567 9.99358,3.782419 11.213,6.726366 1.07092,2.585416 0.59154,6.872841 -1.04828,9.375517 -2.27223,3.467863 -9.89367,5.449349 -16.06027,4.175485 z"
         style="fill:#8c929d;fill-opacity:1" />
      <path
         inkscape:connector-curvature="0"
         id="path3391"
         d="m 122.00026,62.482155 c 0.98297,-2.592593 3.79809,-9.974411 6.25581,-16.404041 l 4.4686,-11.690235 4.45787,-0.212675 4.45786,-0.212675 5.96071,15.673954 c 3.27839,8.620675 6.1147,16.098197 6.30291,16.616716 0.2444,0.673304 -0.72455,0.942761 -3.39014,0.942761 -3.70096,0 -3.73996,-0.02537 -4.63622,-3.016835 l -0.90387,-3.016835 -7.57248,0 -7.57249,0 -1.18504,3.016835 c -1.15348,2.936471 -1.28156,3.016835 -4.80789,3.016835 l -3.62284,0 1.78721,-4.713805 z m 20.77146,-7.036797 c 0,-0.974804 -4.65478,-13.560082 -5.2296,-14.139435 -0.34054,-0.343224 -1.64938,2.20223 -2.90854,5.656565 -1.25915,3.454335 -2.52495,6.874549 -2.81287,7.600475 -0.4709,1.187223 0.0531,1.319865 5.21375,1.319865 3.15549,0 5.73726,-0.196862 5.73726,-0.43747 z"
         style="fill:#8c929d;fill-opacity:1" />
      <path
         inkscape:connector-curvature="0"
         id="path3393"
         d="m 158.6101,50.603367 0,-16.592593 9.61616,0.0028 c 8.20679,0.0024 9.97005,0.218595 12.03073,1.475064 3.05586,1.863269 4.75042,5.115021 4.75042,9.115769 0,6.846215 -4.95944,10.524193 -14.19099,10.524193 l -5.41844,0 0,6.03367 0,6.03367 -3.39394,0 -3.39394,0 0,-16.592593 z m 18.23018,-2.756624 c 0.80351,-0.727167 1.37925,-2.283463 1.37925,-3.728277 0,-3.517911 -2.19471,-4.82823 -8.08701,-4.82823 l -4.73454,0 0,4.902357 0,4.902356 5.03152,0 c 3.62349,0 5.4175,-0.349301 6.41078,-1.248206 z"
         style="fill:#8c929d;fill-opacity:1" />
      <path
         inkscape:connector-curvature="0"
         id="path3395"
         d="m 202.35421,67.244057 c -11.40881,-2.302069 -16.98414,-14.469309 -11.46833,-25.02777 5.40916,-10.35433 20.19876,-12.056033 27.97735,-3.219097 8.81972,10.019737 3.8875,25.371528 -9.04225,28.144464 -2.07349,0.444683 -4.00781,0.769484 -4.29851,0.721781 -0.29069,-0.0477 -1.71641,-0.326424 -3.16826,-0.619378 z m 9.12752,-7.039562 c 4.9776,-3.32525 6.45445,-9.410255 3.73673,-15.396229 -1.69958,-3.743439 -4.67598,-5.519183 -9.24431,-5.515211 -6.36306,0.0055 -10.40782,4.469453 -10.40782,11.486407 0,8.765766 8.95976,14.0717 15.9154,9.425033 z"
         style="fill:#8c929d;fill-opacity:1" />
    </g>
    <path
       style="fill:#8c929d;fill-opacity:1"
       d="m 101.38508,67.185002 c -7.093459,-1.895355 -9.927207,-4.680034 -9.927207,-9.755311 0,-4.581355 3.042714,-8.188352 8.156245,-9.668854 1.324922,-0.383598 1.873932,-0.430168 4.955162,-0.420319 3.1453,0.01005 3.63584,0.05714 5.31421,0.51009 2.22494,0.600457 4.44386,1.659315 6.16634,2.942547 l 1.27239,0.947912 -0.60152,0.837596 c -0.33083,0.460678 -0.62668,0.812428 -0.65744,0.781666 -0.0308,-0.03076 0.0122,-0.304557 0.0954,-0.608433 0.33188,-1.211776 -0.32844,-1.949274 -2.89912,-3.237966 -6.47237,-3.244628 -14.381352,-2.585194 -18.781825,1.56599 -2.097186,1.978378 -2.933443,4.015435 -2.797256,6.813894 0.106617,2.190821 0.674493,3.406584 2.36842,5.07054 1.582021,1.554031 4.449431,3.035182 7.804481,4.031375 2.67141,0.793207 2.72885,0.814022 2.24767,0.814498 -0.20604,1.87e-4 -1.42821,-0.281148 -2.71594,-0.625225 z"
       id="path3528"
       inkscape:connector-curvature="0"
       transform="translate(0,-30)" />
    <path
       style="fill:#8c929d;fill-opacity:1"
       d="m 100.32383,81.235411 c -4.142467,-0.751636 -8.865957,-3.24397 -8.865957,-4.678093 0,-1.013107 2.232225,-4.409852 2.898005,-4.409852 0.135618,0 0.529426,0.266621 0.87513,0.592492 1.360665,1.282601 5.878812,2.979719 8.705532,3.269995 1.3472,0.138344 3.34476,-0.170711 4.60361,-0.712257 1.1168,-0.480434 2.33279,-1.771799 2.4981,-2.652942 0.0681,-0.363096 0.0265,-0.955118 -0.0925,-1.315599 -0.2341,-0.70931 -1.59578,-2.074006 -1.88875,-1.892935 -0.0988,0.06109 -0.17972,0.02794 -0.17972,-0.07367 0,-0.254496 -2.34579,-1.131783 -5.80648,-2.171531 -3.164886,-0.950873 -5.253372,-1.786938 -6.881557,-2.754834 -1.551434,-0.922269 -3.152053,-2.560123 -3.75066,-3.837908 -0.465317,-0.993266 -0.512486,-1.292207 -0.512486,-3.24797 0,-2.040592 0.03198,-2.221536 0.60729,-3.436254 0.909851,-1.921066 2.653438,-3.579306 4.919195,-4.678405 2.222408,-1.078071 3.631828,-1.423541 6.367438,-1.560755 3.41745,-0.171414 6.26734,0.441846 9.51639,2.04781 1.4338,0.708706 2.84579,1.894349 2.84579,2.389596 0,0.502975 -0.66275,1.667099 -1.60432,2.817975 l -1.03711,1.267659 -2.28341,-1.10687 c -1.28769,-0.624203 -2.88256,-1.24017 -3.65741,-1.412557 -1.61599,-0.359526 -5.20387,-0.445539 -5.70353,-0.136733 -0.11801,0.07294 -0.42121,0.154644 -0.67377,0.181572 -0.25257,0.02693 -0.52878,0.158637 -0.6138,0.292687 -0.085,0.134051 -0.15589,0.178349 -0.15747,0.09844 -0.005,-0.246914 -1.00439,0.362654 -1.569543,0.957206 -0.704237,0.740871 -0.854411,1.941966 -0.344202,2.752938 0.197899,0.314558 0.850136,0.828475 1.461886,1.151863 1.062249,0.561537 1.927319,0.860836 7.968909,2.757137 4.8805,1.531862 7.76541,3.356988 8.85851,5.604294 1.18609,2.438475 0.87996,6.931545 -0.63982,9.390605 -1.79743,2.908304 -6.72437,4.810999 -12.34481,4.767342 -1.19697,-0.0093 -2.7803,-0.126497 -3.51852,-0.260443 z"
       id="path3530"
       inkscape:connector-curvature="0"
       transform="translate(0,-30)" />
    <path
       style="fill:#8c929d;fill-opacity:1"
       d="m 91.05925,77.311697 -0.679582,-0.632115 0.753406,-1.146443 c 0.83785,-1.27494 1.12255,-1.398046 0.525171,-0.227086 -0.490225,0.960921 -0.490085,1.530656 5.29e-4,2.15437 0.541617,0.688555 0.212983,0.60703 -0.599524,-0.148726 z"
       id="path3532"
       inkscape:connector-curvature="0"
       transform="translate(0,-30)" />
    <path
       style="fill:#8c929d;fill-opacity:1"
       d="m 99.886636,81.145439 c -4.245194,-0.909147 -8.428763,-3.188452 -8.428763,-4.592183 0,-1.029967 2.221552,-4.40579 2.89935,-4.40579 0.134878,0 0.498492,0.236581 0.808031,0.525734 1.297546,1.212088 5.349936,2.822398 8.151076,3.239015 2.7846,0.414159 5.62101,-0.371391 6.9509,-1.92507 1.16186,-1.357372 1.10917,-2.499061 -0.17728,-3.84168 -0.44605,-0.465519 -0.90136,-0.790547 -1.01181,-0.722285 -0.11045,0.06826 -0.20082,0.04098 -0.20082,-0.06063 0,-0.253657 -2.33708,-1.128683 -5.80648,-2.17401 -4.799229,-1.445999 -7.153816,-2.594164 -8.97556,-4.37674 -0.597992,-0.585134 -1.330682,-1.526546 -1.6282,-2.092025 -0.509215,-0.967841 -0.540943,-1.159977 -0.540943,-3.275815 0,-2.146205 0.02742,-2.305553 0.60729,-3.529907 0.886086,-1.870888 2.645061,-3.559271 4.859739,-4.664706 2.338509,-1.167244 4.041764,-1.535171 7.082464,-1.529909 3.12969,0.0054 5.2764,0.123003 4.86705,0.266593 -0.20947,0.07348 0.094,0.227762 0.87087,0.442695 2.57421,0.712225 5.96869,2.807127 5.96869,3.683573 0,0.503934 -0.66367,1.668217 -1.6109,2.826013 l -1.04368,1.275695 -1.62278,-0.812919 c -2.44653,-1.225576 -4.11068,-1.760059 -6.12018,-1.965645 -0.99142,-0.10143 -1.90994,-0.143224 -2.04114,-0.09288 -0.13121,0.05035 -0.56803,0.120608 -0.97073,0.156132 -0.88131,0.07775 -1.75643,0.266455 -2.03019,0.437784 -0.11024,0.06899 -0.30993,0.142028 -0.44375,0.162306 -0.434598,0.06585 -1.529272,1.009269 -1.817245,1.566147 -0.451994,0.874061 -0.352754,1.590207 0.327982,2.366802 0.810457,0.924584 2.109433,1.485948 6.852773,2.961478 2.18446,0.67953 4.41255,1.408972 4.9513,1.62098 3.01569,1.186728 5.35966,2.968753 6.21328,4.723714 0.9409,1.934373 0.9846,5.154721 0.10466,7.712302 -0.91836,2.669248 -2.74749,4.262343 -6.27492,5.465176 -2.9779,1.015449 -7.68477,1.290801 -10.770084,0.630054 z"
       id="path3534"
       inkscape:connector-curvature="0"
       transform="translate(0,-30)" />
    <path
       style="fill:#8c929d;fill-opacity:1"
       d="m 100.91682,81.392042 c -1.299684,-0.202159 -3.668348,-0.917851 -5.189998,-1.568157 -2.828317,-1.208733 -4.268949,-2.329328 -4.268949,-3.320599 0,-1.061505 2.253902,-4.35582 2.980162,-4.35582 0.179324,0 0.52526,0.212057 0.768747,0.471237 0.916263,0.975317 3.51542,2.161969 6.397978,2.921013 4.02248,1.05921 7.94099,0.05958 9.12469,-2.327749 0.39041,-0.7874 0.42091,-0.990434 0.23963,-1.59547 -0.20617,-0.688145 -1.65727,-2.400931 -1.86127,-2.196931 -0.0585,0.05854 -0.23971,-0.0097 -0.4026,-0.151644 -0.35647,-0.310641 -2.75759,-1.185807 -5.44707,-1.985364 -4.676336,-1.390231 -7.344978,-2.680139 -9.091972,-4.394668 -1.116299,-1.095555 -2.1433,-2.731769 -2.149246,-3.424168 -0.0024,-0.284475 -0.03003,-0.292343 -0.186038,-0.05305 -0.1255,0.192499 -0.146068,8.37e-4 -0.06533,-0.608744 0.08059,-0.608402 0.05057,-0.889703 -0.09492,-0.889703 -0.117021,0 -0.204363,-0.231791 -0.194095,-0.515091 l 0.01867,-0.515091 0.135306,0.468264 c 0.0985,0.340875 0.162687,0.103882 0.235952,-0.87115 0.280966,-3.739165 3.383448,-6.880521 8.227493,-8.330588 1.23414,-0.369441 1.83807,-0.417287 5.55232,-0.439877 2.29216,-0.01394 4.16756,0.03635 4.16756,0.111753 0,0.07541 0.1475,0.175649 0.32778,0.222761 0.27863,0.07281 0.2716,0.09028 -0.0468,0.116494 -0.20603,0.01696 0.28523,0.276043 1.09171,0.575741 2.70313,1.004531 4.48798,2.210206 4.9893,3.370303 0.19394,0.44878 0.1977,0.444884 0.0905,-0.09365 -0.0615,-0.309055 -0.28886,-0.751565 -0.50522,-0.983356 -0.21636,-0.231791 -0.32894,-0.421438 -0.25018,-0.421438 0.25576,0 1.59994,1.024671 1.59712,1.217488 -0.005,0.324152 -0.9231,1.338867 -0.93236,1.030182 -0.005,-0.154527 -0.14252,-0.0281 -0.30641,0.280959 -0.16389,0.309055 -0.74973,1.125378 -1.30187,1.814052 l -1.0039,1.252134 -2.10896,-0.999483 c -2.83408,-1.343134 -3.83116,-1.624256 -6.04238,-1.703615 -1.91049,-0.06857 -4.35259,0.191309 -4.67328,0.497305 -0.0979,0.09338 -0.30063,0.169789 -0.45059,0.169789 -0.478729,0 -1.555814,0.963369 -1.841482,1.64707 -0.86173,2.062409 0.696161,3.172993 7.246312,5.165727 4.18833,1.274206 5.0921,1.610137 7.00423,2.603473 4.22665,2.19571 5.55469,5.170029 4.57702,10.250844 -0.53718,2.791674 -1.95988,4.561129 -4.74459,5.900971 -2.62667,1.263807 -4.30977,1.620739 -7.9605,1.688171 -1.69979,0.0314 -3.34341,0.01776 -3.65246,-0.03032 z"
       id="path3536"
       inkscape:connector-curvature="0"
       transform="translate(0,-30)" />
    <path
       style="fill:#8c929d;fill-opacity:1"
       d="m 100.08316,81.232439 c -4.476147,-1.012883 -8.625287,-3.261711 -8.625287,-4.674892 0,-1.072465 2.225988,-4.410081 2.941258,-4.410081 0.157927,0 0.576249,0.253841 0.929605,0.564092 1.254212,1.101213 4.58651,2.499389 7.166624,3.006995 1.68371,0.331251 4.56262,0.148761 5.71607,-0.362333 1.34228,-0.59476 2.07263,-1.215286 2.52134,-2.14221 0.49902,-1.030825 0.37789,-1.733559 -0.46943,-2.723462 -0.86287,-1.008066 -2.29124,-1.705769 -5.60066,-2.735698 -6.319185,-1.966607 -8.635675,-3.040703 -10.496512,-4.86696 -1.116299,-1.095555 -2.1433,-2.731769 -2.149246,-3.424168 -0.0024,-0.284475 -0.03003,-0.292343 -0.186038,-0.05305 -0.1255,0.192499 -0.146068,8.37e-4 -0.06533,-0.608744 0.08059,-0.608402 0.05057,-0.889703 -0.09492,-0.889703 -0.117021,0 -0.211475,-0.231791 -0.209897,-0.515091 0.002,-0.350319 0.05315,-0.43579 0.160043,-0.267191 0.09893,0.156031 0.196295,-0.18353 0.262738,-0.916274 0.299477,-3.302683 3.175666,-6.319178 7.485852,-7.851025 0.54204,-0.192642 0.8821,-0.356416 0.75567,-0.363943 -0.380018,-0.02263 -2.607525,0.868456 -3.546475,1.418717 -0.482814,0.282948 -1.411047,1.013237 -2.062741,1.622864 -0.651693,0.609627 -1.184897,1.02354 -1.184897,0.919807 0,-0.323034 2.174748,-2.220106 3.250896,-2.835816 1.992259,-1.139855 2.932288,-1.360385 6.114397,-1.434429 1.59679,-0.03716 3.40897,-0.10727 4.02708,-0.155809 0.70031,-0.055 0.94737,-0.03217 0.65557,0.06056 -0.30028,0.09543 0.0525,0.13418 0.98336,0.10802 0.79839,-0.02244 1.45162,0.03193 1.45162,0.120803 0,0.08888 0.1475,0.162889 0.32778,0.164466 0.24597,0.0022 0.26664,0.04165 0.0828,0.158248 -0.16527,0.10482 0.13947,0.292747 0.93653,0.577538 1.40447,0.501818 3.43873,1.571064 4.06286,2.135517 0.24549,0.222025 0.6034,0.656544 0.79535,0.965599 0.19194,0.309055 0.34931,0.46832 0.34969,0.353923 3.7e-4,-0.114397 -0.20748,-0.514763 -0.46192,-0.889703 -0.25444,-0.374939 -0.41541,-0.681708 -0.35771,-0.681708 0.20195,0 1.56159,1.031696 1.56555,1.187944 0.006,0.226897 -0.74912,1.153379 -0.93974,1.153379 -0.0883,0 -0.41227,0.379294 -0.71987,0.842876 -0.3076,0.463582 -0.86118,1.194979 -1.23019,1.625327 l -0.67092,0.78245 -1.93925,-0.907834 c -2.88808,-1.352018 -4.22174,-1.729285 -6.25829,-1.77035 -4.38846,-0.08849 -6.778731,0.902975 -7.082421,2.937736 -0.232171,1.555574 1.165888,2.477114 6.201541,4.087784 5.29963,1.695104 6.20994,2.027842 8.04086,2.939079 1.9811,0.985989 3.64162,2.47423 4.31517,3.867478 0.88845,1.837767 1.01326,4.301532 0.35134,6.934947 -0.65857,2.62004 -1.9587,4.144222 -4.65322,5.455118 -2.55962,1.245265 -4.27002,1.604207 -8.05415,1.690235 -2.33923,0.05318 -3.50483,-1.65e-4 -4.39247,-0.201024 z m 0.97414,-33.371476 c -0.12878,-0.05196 -0.33949,-0.05196 -0.46827,0 -0.12877,0.05196 -0.0234,0.09448 0.23414,0.09448 0.25754,0 0.3629,-0.04251 0.23413,-0.09448 z"
       id="path3538"
       inkscape:connector-curvature="0"
       transform="translate(0,-30)" />
    <path
       style="fill:#8c929d;fill-opacity:1"
       d=""
       id="path3540"
       inkscape:connector-curvature="0"
       transform="translate(0,-30)" />
    <path
       style="fill:#8c929d;fill-opacity:1"
       d="m 119.90405,80.248444 c 0.18966,-0.489336 2.98528,-7.81269 6.21249,-16.274119 l 5.86766,-15.384416 1.60479,-0.112247 c 0.88264,-0.06174 2.86957,-0.166491 4.41541,-0.232789 l 2.81061,-0.120542 6.16192,16.234734 c 4.79858,12.642751 6.11212,16.284593 5.93683,16.460081 -0.24496,0.245236 -5.11661,0.443649 -5.92308,0.241237 -0.77319,-0.194058 -1.2009,-0.866748 -1.79208,-2.818552 -0.31318,-1.03399 -0.65495,-2.153918 -0.75948,-2.488727 l -0.19005,-0.608744 -7.64015,0 -7.64015,0 -0.6151,1.638926 c -0.99938,2.66286 -1.51061,3.620558 -2.13636,4.002143 -0.50079,0.30538 -0.97376,0.351409 -3.61711,0.352017 l -3.04098,7.01e-4 0.34483,-0.889703 z m 21.61131,-10.468383 c 0.30671,-0.06624 0.51484,-0.235015 0.51446,-0.417192 -0.001,-0.698224 -3.73374,-10.991202 -4.79731,-13.230053 -0.19575,-0.412072 -0.48169,-0.749223 -0.6354,-0.749223 -0.16861,0 -0.66332,0.780262 -1.24696,1.966711 -1.18707,2.413092 -4.5969,11.6684 -4.44484,12.064643 0.0606,0.158045 0.37606,0.330131 0.70092,0.382413 0.32487,0.05228 0.80138,0.133802 1.05893,0.181155 0.6195,0.113903 8.1899,-0.05585 8.8502,-0.198454 z"
       id="path3542"
       inkscape:connector-curvature="0"
       transform="translate(0,-30)" />
    <path
       style="fill:#8c929d;fill-opacity:1"
       d="m 134.30409,69.948421 c 0.64386,-0.03657 1.69745,-0.03657 2.34132,0 0.64386,0.03658 0.11706,0.0665 -1.17066,0.0665 -1.28773,0 -1.81453,-0.02992 -1.17066,-0.0665 z"
       id="path3544"
       inkscape:connector-curvature="0"
       transform="translate(0,-30)" />
    <path
       style="fill:#8c929d;fill-opacity:1"
       d="m 134.20224,69.948392 c 0.69086,-0.03594 1.87089,-0.03618 2.62228,-5.31e-4 0.75139,0.03564 0.18613,0.06505 -1.25612,0.06534 -1.44226,2.92e-4 -2.05703,-0.02887 -1.36616,-0.06481 z"
       id="path3546"
       inkscape:connector-curvature="0"
       transform="translate(0,-30)" />
    <path
       style="fill:#8c929d;fill-opacity:1"
       d="m 132.00959,69.71249 c -0.41207,-0.07378 1.56868,-0.132845 4.40169,-0.131255 3.19737,0.0018 4.65364,0.05393 3.83977,0.137461 -1.68395,0.172833 -7.26498,0.16863 -8.24146,-0.0062 z"
       id="path3548"
       inkscape:connector-curvature="0"
       transform="translate(0,-30)" />
    <path
       style="fill:#8c929d;fill-opacity:1"
       d="m 131.81837,48.208638 c 0.0537,-0.139845 0.0976,-0.333157 0.0976,-0.429581 0,-0.244383 9.03452,-0.13306 9.11396,0.112302 0.0381,0.117677 -1.02182,0.210529 -2.85125,0.249779 -1.60153,0.03436 -3.70973,0.120813 -4.68487,0.192119 -1.45445,0.106354 -1.75546,0.08396 -1.67541,-0.124619 z"
       id="path3550"
       inkscape:connector-curvature="0"
       transform="translate(0,-30)" />
    <path
       style="fill:#8c929d;fill-opacity:1"
       d="m 201.24026,81.59805 c -6.94791,-1.507329 -11.76727,-6.278878 -13.23435,-13.103048 -0.43331,-2.015549 -0.43331,-5.851296 0,-7.866845 0.69486,-3.232176 2.02794,-5.856453 4.111,-8.092869 2.52577,-2.711719 5.39421,-4.283899 9.38315,-5.142867 1.86051,-0.400638 6.24658,-0.304327 8.19918,0.180042 6.23791,1.547397 10.61247,5.69719 12.42374,11.785416 0.40095,1.347708 0.506,2.152496 0.58146,4.454477 0.10741,3.276635 -0.22937,5.371063 -1.26283,7.853545 -2.32733,5.590495 -7.95679,9.706996 -13.83252,10.114926 -0.68149,0.04731 -1.02836,0.04366 -0.77082,-0.0081 5.47204,-1.100057 8.33292,-2.535917 11.25307,-5.647852 1.5991,-1.704126 2.80194,-3.698311 3.56019,-5.902468 0.74045,-2.152431 0.98315,-3.970761 0.86806,-6.503694 -0.19216,-4.229117 -1.78156,-7.900262 -4.81285,-11.116562 -2.21893,-2.354358 -5.03473,-3.98166 -8.33984,-4.819747 -2.3362,-0.5924 -5.83717,-0.597021 -8.24145,-0.01088 -3.45793,0.843008 -7.22866,3.17157 -9.25059,5.71256 -2.41848,3.039342 -3.70939,6.560817 -3.88916,10.609241 -0.085,1.913087 -0.035,2.673705 0.27318,4.158579 1.06741,5.143084 4.26421,9.301654 8.93314,11.620695 1.60018,0.794802 2.67419,1.153128 4.86995,1.624779 1.0056,0.216003 1.42125,0.361721 1.03019,0.361161 -0.36057,-5.62e-4 -1.19392,-0.117733 -1.8519,-0.260479 z"
       id="path3552"
       inkscape:connector-curvature="0"
       transform="translate(0,-30)" />
    <path
       style="fill:#8c929d;fill-opacity:1"
       d="m 173.12322,69.141097 c 7.2499,-0.808468 11.13393,-4.432983 11.12962,-10.385999 -0.002,-2.212086 -0.26692,-3.452871 -1.12761,-5.273415 -1.23239,-2.606769 -3.9193,-4.632464 -6.81781,-5.140029 -0.73036,-0.127895 -4.6836,-0.250232 -9.88038,-0.305758 -5.37402,-0.05742 -8.6629,-0.161149 -8.6629,-0.273223 0,-0.114586 3.3054,-0.15232 9.03751,-0.103172 9.97672,0.08554 9.85731,0.07262 12.40901,1.342993 3.19776,1.592016 5.24819,4.891939 5.46727,8.79888 0.18772,3.347887 -0.79133,6.025511 -3.02538,8.27418 -2.1356,2.149567 -4.38615,3.034029 -8.06106,3.167984 l -2.06037,0.0751 1.5921,-0.177543 z"
       id="path3554"
       inkscape:connector-curvature="0"
       transform="translate(0,-30)" />
    <path
       style="fill:#8c929d;fill-opacity:1"
       d=""
       id="path3556"
       inkscape:connector-curvature="0"
       transform="translate(0,-30)" />
    <path
       style="fill:#8c929d;fill-opacity:1"
       d="m 116.64817,76.361848 c 0.067,-0.206037 0.30369,-0.880338 0.52588,-1.498447 0.33987,-0.945452 0.4047,-1.540062 0.40849,-3.746117 0.004,-2.51175 -0.0181,-2.668423 -0.53254,-3.71694 -1.15488,-2.353991 -3.76122,-4.107288 -8.39523,-5.647507 -2.88908,-0.960252 -2.81655,-1.098554 0.14324,-0.273119 4.40422,1.228266 7.14027,3.089432 8.45678,5.752621 l 0.70686,1.42991 0,2.445006 c 0,2.059911 -0.0674,2.639827 -0.4276,3.681947 -0.23518,0.680318 -0.55814,1.396763 -0.71769,1.5921 -0.28281,0.346255 -0.28703,0.345767 -0.16819,-0.01945 z"
       id="path3558"
       inkscape:connector-curvature="0"
       transform="translate(0,-30)" />
    <path
       style="fill:#8c929d;fill-opacity:1"
       d="m 100.08316,81.232439 c -4.476147,-1.012883 -8.625287,-3.261711 -8.625287,-4.674892 0,-1.072465 2.225988,-4.410081 2.941258,-4.410081 0.157927,0 0.575851,0.253493 0.928719,0.563315 0.876865,0.769896 2.521479,1.573199 4.90128,2.393999 1.90728,0.657828 2.11035,0.689231 4.4338,0.685669 2.88557,-0.0044 4.07599,-0.36446 5.32076,-1.609227 1.78808,-1.788087 1.16688,-3.644607 -1.69557,-5.067399 -1.68028,-0.835187 -7.37222,-2.615945 -7.92113,-2.478176 -0.503486,0.126366 -3.091775,-0.855638 -4.530807,-1.718999 -1.251816,-0.75104 -2.12385,-1.527223 -2.903118,-2.584015 -0.883814,-1.198572 -0.619897,-1.087461 0.819304,0.344933 1.215724,1.209974 3.613628,2.874988 3.829533,2.659083 0.0459,-0.0459 -0.44796,-0.365505 -1.097475,-0.710224 -1.611987,-0.855536 -3.38171,-2.624894 -4.060022,-4.059184 -0.297747,-0.629585 -0.604507,-1.084155 -0.68169,-1.010157 -0.07718,0.074 -0.08261,-0.215029 -0.01207,-0.642284 0.08024,-0.485956 0.05318,-0.823231 -0.07225,-0.900757 -0.110287,-0.06816 -0.200522,-0.334649 -0.200522,-0.592194 0,-0.257546 0.07272,-0.423321 0.1616,-0.36839 0.08888,0.05493 0.209746,-0.366618 0.268591,-0.936775 0.150492,-1.458123 1.05397,-3.259622 2.320375,-4.626731 l 1.077903,-1.163618 -0.977705,0.929488 c -0.537738,0.511219 -0.977706,0.834765 -0.977706,0.718991 0,-0.368365 2.387295,-2.413939 3.508661,-3.006425 1.996637,-1.054948 2.718702,-1.213024 5.856628,-1.282149 1.59679,-0.03517 3.40897,-0.111263 4.02708,-0.169085 0.79987,-0.07483 1.04284,-0.04962 0.84288,0.08745 -0.20644,0.141496 -0.10707,0.163507 0.37461,0.08298 0.36056,-0.06028 0.76093,-0.141804 0.8897,-0.181165 0.12877,-0.03936 0.23413,0.01991 0.23413,0.131707 0,0.1118 0.16858,0.159189 0.37461,0.10531 0.20604,-0.05388 0.37462,-0.02826 0.37462,0.05692 0,0.08519 0.26408,0.212891 0.58685,0.283783 0.36003,0.07908 0.50083,0.182062 0.36429,0.266451 -0.13552,0.08375 0.12946,0.267452 0.67746,0.46966 1.44521,0.533272 3.27715,1.578169 4.06492,2.318534 0.6855,0.644255 0.77376,0.523671 0.14909,-0.203708 -0.15483,-0.180282 -0.21869,-0.327785 -0.14192,-0.327785 0.22751,0 1.59589,1.016366 1.60023,1.188574 0.006,0.240924 -0.77287,1.281191 -0.8795,1.174554 -0.0514,-0.05138 -0.57525,0.554853 -1.16416,1.347183 -0.5889,0.79233 -1.19346,1.540913 -1.34345,1.663519 -0.21846,0.178577 -0.62554,0.0537 -2.04644,-0.627798 -3.52216,-1.689309 -5.00034,-2.000208 -8.3198,-1.749865 -1.68652,0.127193 -2.3454,0.263044 -3.17174,0.653966 -2.134546,1.0098 -2.571439,3.006163 -0.914614,4.179279 0.883064,0.625256 3.042674,1.455116 6.912584,2.656254 7.51109,2.331288 10.31066,4.276169 11.20759,7.785991 l 0.2848,1.114498 -0.0998,-0.983356 c -0.0566,-0.55836 -0.0238,-0.983355 0.0759,-0.983355 0.10167,0 0.17386,1.164171 0.17131,2.762761 -0.003,1.753258 -0.0549,2.488997 -0.14268,2.013538 -0.11463,-0.621065 -0.14283,-0.65773 -0.16486,-0.214342 -0.0439,0.8837 -0.58579,2.750081 -1.08376,3.732764 -0.69788,1.377209 -1.94363,2.471757 -3.88542,3.413836 -2.58498,1.254133 -4.28694,1.612046 -8.07516,1.698168 -2.33923,0.05318 -3.50483,-1.65e-4 -4.39247,-0.201024 z m 0.34978,-14.781288 c -0.0842,-0.0832 -1.712314,-0.735135 -2.32571,-0.931256 -0.206036,-0.06588 0.131114,0.129913 0.749224,0.435087 0.961629,0.474779 1.831986,0.748704 1.576486,0.496169 z M 95.789799,50.092203 c 0.232984,-0.297078 0.226359,-0.303703 -0.07072,-0.07072 -0.180282,0.141386 -0.327785,0.28889 -0.327785,0.327785 0,0.154159 0.153813,0.05494 0.398503,-0.257067 z m 1.099943,-0.715577 c 0,-0.05151 -0.168575,-0.0034 -0.374611,0.106833 -0.206037,0.110267 -0.374612,0.24263 -0.374612,0.294139 0,0.05151 0.168575,0.0034 0.374612,-0.106833 0.206036,-0.110268 0.374611,-0.24263 0.374611,-0.294139 z m 0.660527,-0.418911 c -0.05767,-0.05767 -0.208807,-1.18e-4 -0.335863,0.12789 -0.18361,0.184986 -0.162095,0.206501 0.104853,0.104853 0.184725,-0.07034 0.288679,-0.175074 0.23101,-0.232743 z m 1.737774,-0.545317 c 0.443411,-0.155217 0.770577,-0.31784 0.727027,-0.361386 -0.09947,-0.09947 -2.188798,0.674072 -2.188798,0.810374 0,0.05513 0.147503,0.04016 0.327785,-0.03327 0.180282,-0.07343 0.690576,-0.260501 1.133986,-0.415718 z"
       id="path3560"
       inkscape:connector-curvature="0"
       transform="translate(0,-30)" />
    <path
       style="fill:#8c929d;fill-opacity:1"
       d="m 102.38472,81.874897 c -2.12876,-0.163933 -5.095401,-0.886569 -6.520685,-1.588354 -1.147527,-0.565023 -0.707509,-0.480204 1.400319,0.269927 4.695966,1.671194 10.685816,1.46302 15.067336,-0.523658 0.71284,-0.323214 1.58135,-0.805262 1.93004,-1.07122 0.34869,-0.265957 0.67843,-0.43911 0.73275,-0.384785 0.16889,0.16889 -1.46509,1.270345 -2.83931,1.91396 -2.65175,1.241946 -5.80891,1.689203 -9.77045,1.38413 z"
       id="path3562"
       inkscape:connector-curvature="0"
       transform="translate(0,-30)" />
    <path
       style="fill:#8c929d;fill-opacity:1"
       d="m 152.46353,81.118288 c 0.32974,-0.09536 0.65146,-0.257418 0.71494,-0.360132 0.0635,-0.102715 -0.28137,-1.241459 -0.76634,-2.530544 -0.48496,-1.289084 -0.84029,-2.385257 -0.78961,-2.435939 0.0507,-0.05068 0.51924,1.02618 1.04123,2.393029 0.52199,1.366849 1.00712,2.632684 1.07806,2.812965 0.11355,0.288555 0.009,0.325764 -0.87441,0.310893 -0.93348,-0.01572 -0.96162,-0.02897 -0.40387,-0.190272 z"
       id="path3564"
       inkscape:connector-curvature="0"
       transform="translate(0,-30)" />
    <path
       style="fill:#8c929d;fill-opacity:1"
       d="m 145.8412,81.036416 c -0.16023,-0.417562 -0.05,-0.425313 0.68459,-0.04814 l 0.65557,0.336595 -0.61462,2.91e-4 c -0.38138,1.8e-4 -0.65671,-0.109394 -0.72554,-0.288746 z"
       id="path3566"
       inkscape:connector-curvature="0"
       transform="translate(0,-30)" />
    <path
       style="fill:#8c929d;fill-opacity:1"
       d="m 126.10945,80.997376 c 0.42873,-0.214171 0.8323,-0.65156 1.16629,-1.264023 0.61453,-1.126901 0.66687,-0.886794 0.11886,0.54525 -0.39657,1.036312 -0.40836,1.046847 -1.17066,1.046559 l -0.77006,-2.91e-4 0.65557,-0.327495 z"
       id="path3568"
       inkscape:connector-curvature="0"
       transform="translate(0,-30)" />
    <path
       style="fill:#8c929d;fill-opacity:1"
       d="m 144.45335,77.3723 -0.64959,-1.759676 -7.39553,-0.09801 -7.39554,-0.09801 7.57576,0.0044 7.57576,0.0044 0.52218,1.685752 c 0.70537,2.277153 0.56799,2.431152 -0.23304,0.261229 z"
       id="path3570"
       inkscape:connector-curvature="0"
       transform="translate(0,-30)" />
    <path
       style="fill:#8c929d;fill-opacity:1"
       d="m 130.6623,75.51449 c 0.80427,-0.07666 2.82717,-0.07802 4.49534,-0.003 l 3.03304,0.136372 -4.49534,0.003 c -3.13438,0.0021 -4.05263,-0.03918 -3.03304,-0.136372 z"
       id="path3572"
       inkscape:connector-curvature="0"
       transform="translate(0,-30)" />
    <path
       style="fill:#8c929d;fill-opacity:1"
       d="m 129.43413,75.386784 c 0.23179,-0.04465 0.61109,-0.04465 0.84288,0 0.23179,0.04464 0.0421,0.08117 -0.42144,0.08117 -0.46358,0 -0.65323,-0.03653 -0.42144,-0.08117 z"
       id="path3574"
       inkscape:connector-curvature="0"
       transform="translate(0,-30)" />
    <path
       style="fill:#8c929d;fill-opacity:1"
       d="m 92.95632,73.032562 c 0,-0.06871 0.268391,-0.505689 0.596424,-0.971074 0.574881,-0.815591 0.609456,-0.834394 0.957213,-0.520567 0.348461,0.314462 0.348881,0.327796 0.01232,0.390249 -0.191658,0.03556 -0.622403,0.326034 -0.957212,0.645487 -0.33481,0.319454 -0.608744,0.524611 -0.608744,0.455905 z"
       id="path3576"
       inkscape:connector-curvature="0"
       transform="translate(0,-30)" />
    <path
       style="fill:#8c929d;fill-opacity:1"
       d="m 92.95632,72.885635 c 0,-0.109098 0.08429,-0.146267 0.187305,-0.0826 0.240011,0.148335 0.240011,0.280959 0,0.280959 -0.103018,0 -0.187305,-0.08926 -0.187305,-0.198361 z"
       id="path3578"
       inkscape:connector-curvature="0"
       transform="translate(0,-30)" />
    <path
       style="fill:#8c929d;fill-opacity:1"
       d=""
       id="path3580"
       inkscape:connector-curvature="0"
       transform="translate(0,-30)" />
    <path
       style="fill:#8c929d;fill-opacity:1"
       d=""
       id="path3582"
       inkscape:connector-curvature="0"
       transform="translate(0,-30)" />
    <path
       style="fill:#8c929d;fill-opacity:1"
       d="m 104.94389,81.690456 c 1.49377,-0.09101 3.01095,-0.250179 3.37151,-0.353712 l 0.65557,-0.188243 -0.65557,0.08363 c -0.36056,0.046 -1.58274,0.129554 -2.71594,0.185686 -1.1332,0.05613 -2.67245,0.136179 -3.42056,0.177879 -0.943,0.05257 -1.32186,0.01379 -1.23519,-0.126448 0.0847,-0.137082 -0.0655,-0.164172 -0.46603,-0.08406 -0.37223,0.07445 -0.591044,0.04308 -0.591044,-0.08472 0,-0.124682 -0.186608,-0.156093 -0.483959,-0.08146 -0.282389,0.07088 -0.438955,0.04865 -0.375906,-0.05336 0.141694,-0.229266 -0.703376,-0.437356 -1.122689,-0.27645 -0.235179,0.09025 -0.285198,0.05837 -0.178734,-0.113888 0.110769,-0.179227 0.04215,-0.205658 -0.273688,-0.105416 -0.306171,0.09717 -0.383058,0.07155 -0.280959,-0.09365 0.102845,-0.166406 0.02118,-0.190679 -0.304329,-0.09045 -0.244692,0.07534 -0.384362,0.07301 -0.310379,-0.0052 0.07398,-0.07819 -0.702932,-0.553013 -1.726478,-1.055148 -1.023546,-0.502137 -2.212284,-1.24715 -2.641639,-1.655585 -0.722283,-0.687092 -0.77305,-0.799244 -0.679045,-1.500103 0.156394,-1.166009 2.2148,-4.122287 2.870278,-4.122287 0.14045,0 0.699532,0.336179 1.242405,0.747064 1.242162,0.940157 3.601338,1.96024 5.930356,2.564221 1.53957,0.399255 2.07086,0.452233 3.67298,0.366246 2.22229,-0.119267 3.33333,-0.465185 4.38476,-1.365175 2.09023,-1.789154 1.70053,-3.732402 -1.03484,-5.160227 -1.63524,-0.853573 -7.07234,-2.620588 -7.63162,-2.480218 -0.22899,0.05747 -1.04162,-0.11949 -1.812786,-0.394758 -2.896511,-1.033914 -4.991152,-2.413846 -6.202625,-4.086236 -0.843691,-1.164681 -0.622799,-1.208623 0.450019,-0.08952 0.540845,0.564178 0.720834,0.725327 0.399975,0.358108 -0.320859,-0.367219 -0.796425,-0.989942 -1.056813,-1.383828 -0.318429,-0.481685 -0.511074,-0.634996 -0.588402,-0.468265 -0.06323,0.136341 -0.07225,0.0222 -0.02003,-0.253651 0.06004,-0.317189 -0.01592,-0.612407 -0.206664,-0.803149 -0.185122,-0.185123 -0.266298,-0.486304 -0.210186,-0.779837 0.05028,-0.263027 6.26e-4,-0.718773 -0.110345,-1.012768 -0.152782,-0.404765 -0.14134,-0.647443 0.04713,-0.999603 0.136893,-0.255787 0.207452,-0.681866 0.156798,-0.946844 -0.05065,-0.264978 -0.0195,-0.481778 0.06923,-0.481778 0.08873,0 0.161398,-0.10536 0.161479,-0.234132 2.86e-4,-0.452454 1.082589,-2.515865 1.701596,-3.244092 0.48718,-0.57314 0.513216,-0.635602 0.117573,-0.282069 -0.279497,0.249748 -0.508176,0.364772 -0.508176,0.255608 0,-0.386684 2.368774,-2.40466 3.56382,-3.036045 0.666863,-0.352328 1.24075,-0.711076 1.275304,-0.797217 0.03455,-0.08614 0.129511,-0.115406 0.211017,-0.06503 0.08151,0.05037 0.601105,-0.04995 1.154664,-0.222931 0.779372,-0.243552 1.619272,-0.305783 3.722402,-0.275803 1.49377,0.02129 3.15845,-0.03385 3.69929,-0.122541 0.61783,-0.101315 0.98336,-0.09413 0.98336,0.01933 0,0.09933 0.25286,0.143479 0.56191,0.09812 0.30906,-0.04536 0.56192,-0.003 0.56192,0.09424 0,0.09719 0.16849,0.13265 0.37443,0.0788 0.20593,-0.05385 0.41757,-0.02811 0.4703,0.05721 0.0527,0.08532 0.65253,0.34037 1.33289,0.566779 0.68035,0.226409 1.14146,0.470703 1.02469,0.542875 -0.12384,0.07654 0.19394,0.320876 0.76251,0.586298 0.53616,0.250291 1.27523,0.670419 1.64238,0.933617 0.36715,0.263199 0.79398,0.553313 0.94851,0.644699 0.24234,0.143322 0.24563,0.122604 0.0239,-0.150757 -0.35035,-0.43191 0.007,-0.400215 0.58134,0.05156 0.25764,0.202663 0.51417,0.322742 0.57007,0.266844 0.0559,-0.0559 0.15717,0.07335 0.22505,0.287222 0.12137,0.382396 -0.49537,1.512434 -0.82544,1.512434 -0.0818,0 -0.57232,0.568941 -1.08996,1.264314 -1.59292,2.139846 -1.41647,2.082428 -3.37568,1.098454 -3.12166,-1.567793 -4.31844,-1.844001 -7.80703,-1.8018 -3.04067,0.03678 -5.012566,0.948469 -5.545744,2.564016 -0.16939,0.513255 -0.1452,0.747232 0.136951,1.324644 0.282556,0.578244 0.622009,0.841359 1.934773,1.499674 0.87566,0.439115 1.80282,0.818409 2.06037,0.842876 0.25754,0.02447 0.51041,0.09829 0.56192,0.164051 0.19363,0.247214 6.71149,2.222096 6.98604,2.116741 0.33715,-0.129379 2.49669,0.748409 3.66126,1.488191 1.13857,0.723265 0.84934,0.819766 -0.34548,0.115272 -0.54006,-0.318429 -1.01428,-0.546608 -1.05382,-0.507065 -0.0395,0.03954 0.33326,0.292411 0.82846,0.56193 1.96577,1.069905 3.21031,2.35613 3.89826,4.028828 0.2706,0.657934 0.44064,0.905594 0.44338,0.64578 0.002,-0.231791 0.0806,-0.421438 0.17371,-0.421438 0.0932,0 0.16929,1.242171 0.16932,2.762761 3e-5,1.519519 -0.0566,2.509898 -0.12588,2.200844 -0.11202,-0.499794 -0.15065,-0.430027 -0.34941,0.63104 -0.31195,1.665309 -1.18524,3.425779 -2.17802,4.390644 -0.87112,0.846632 -2.78832,1.950394 -4.48154,2.580082 -0.53731,0.19982 -0.76621,0.320795 -0.50866,0.268831 0.25754,-0.05196 0.67898,-0.138166 0.93653,-0.191563 0.33026,-0.06847 0.27516,-0.008 -0.18699,0.205354 -1.21487,0.560745 -3.07609,0.849539 -5.90045,0.91554 l -2.80959,0.06565 2.71593,-0.165469 z m 4.63192,-0.665474 c -0.0622,-0.06224 -0.22379,-0.06889 -0.359,-0.01478 -0.14942,0.05979 -0.10504,0.104176 0.11316,0.113163 0.19745,0.0081 0.30808,-0.03614 0.24584,-0.09838 l 0,-8e-6 z m 8.04553,-11.909529 c -0.0598,-0.14942 -0.10418,-0.105037 -0.11317,0.113164 -0.008,0.197451 0.0361,0.308079 0.0984,0.245839 0.0622,-0.06224 0.0689,-0.223793 0.0148,-0.359003 l 1e-5,0 z m -16.98548,-2.587162 c -0.15453,-0.09986 -0.36525,-0.181569 -0.46827,-0.181569 -0.10301,0 -0.0609,0.0817 0.0937,0.181569 0.15452,0.09986 0.36524,0.181569 0.46826,0.181569 0.10302,0 0.0609,-0.0817 -0.0937,-0.181569 z m -0.93653,-0.374612 c -0.154527,-0.09986 -0.365246,-0.181568 -0.468265,-0.181568 -0.103018,0 -0.06087,0.0817 0.09365,0.181568 0.154528,0.09986 0.365247,0.181569 0.468265,0.181569 0.103018,0 0.06087,-0.08171 -0.09365,-0.181569 z m -0.936529,-0.374611 c -0.154528,-0.09986 -0.365247,-0.18157 -0.468265,-0.18157 -0.103018,0 -0.06087,0.08171 0.09365,0.18157 0.154527,0.09986 0.365247,0.181568 0.468265,0.181568 0.103018,0 0.06087,-0.0817 -0.09365,-0.181568 z m -1.873059,-0.836287 c 0,-0.04788 -0.189647,-0.178965 -0.421438,-0.291291 -0.404698,-0.196117 -0.406996,-0.192659 -0.05785,0.08706 0.382153,0.306168 0.479291,0.34756 0.479291,0.204229 z M 111.4996,62.797685 c -0.36057,-0.188399 -0.86629,-0.396376 -1.12384,-0.462171 -0.25754,-0.0658 -0.0468,0.08506 0.46827,0.335233 1.08974,0.529272 1.62328,0.632583 0.65557,0.126938 z M 96.889742,49.376626 c 0,-0.05151 -0.168575,-0.0034 -0.374611,0.106833 -0.206037,0.110267 -0.374612,0.24263 -0.374612,0.294139 0,0.05151 0.168575,0.0034 0.374612,-0.106833 0.206036,-0.110268 0.374611,-0.24263 0.374611,-0.294139 z m 14.797158,-0.64239 c -0.15452,-0.09986 -0.36524,-0.18157 -0.46826,-0.18157 -0.10302,0 -0.0609,0.08171 0.0937,0.18157 0.15453,0.09986 0.36525,0.181569 0.46827,0.181569 0.10302,0 0.0609,-0.08171 -0.0937,-0.181569 z M 99.324718,48.359624 c 0.154528,-0.09986 0.196671,-0.18157 0.09365,-0.18157 -0.103018,0 -0.313737,0.08171 -0.468264,0.18157 -0.154528,0.09986 -0.196671,0.181569 -0.09365,0.181569 0.103018,0 0.313737,-0.08171 0.468264,-0.181569 z m 2.669112,-0.685967 c -0.12878,-0.05196 -0.3395,-0.05196 -0.46827,0 -0.12877,0.05196 -0.0234,0.09448 0.23413,0.09448 0.25755,0 0.36291,-0.04251 0.23414,-0.09448 z"
       id="path3584"
       inkscape:connector-curvature="0"
       transform="translate(0,-30)" />
    <path
       style="fill:#8c929d;fill-opacity:1"
       d=""
       id="path3586"
       inkscape:connector-curvature="0"
       transform="translate(0,-30)" />
    <path
       style="fill:#8c929d;fill-opacity:1"
       d=""
       id="path3588"
       inkscape:connector-curvature="0"
       transform="translate(0,-30)" />
    <path
       style="fill:#8c929d;fill-opacity:1"
       d="m 164.69446,53.604188 c 0,-0.220366 5.91011,-0.226557 7.49223,-0.0078 0.68376,0.09452 -0.40276,0.151278 -3.23102,0.168782 -2.73352,0.01692 -4.26121,-0.04078 -4.26121,-0.160933 z"
       id="path3592"
       inkscape:connector-curvature="0"
       transform="translate(0,-30)" />
  </g>
</svg>
